<svg width="788" height="1535" viewBox="0 0 788 1535" fill="none" xmlns="http://www.w3.org/2000/svg">
<g clip-path="url(#clip0_174_1187)" filter="url(#filter0_d_174_1187)">
<path d="M82.5 203H810V1674H82.5V203Z" fill="black" fill-opacity="0.01"/>
<path fill-rule="evenodd" clip-rule="evenodd" d="M50.0008 745.51C50.0008 550.458 50.0008 355.407 50.0029 160.353C50.0029 145.711 49.8552 131.054 51.6631 116.485C53.9329 98.1891 60.1639 81.6785 73.6557 68.5009C85.2626 57.1603 99.4534 51.1728 115.202 48.4765C123.248 47.0971 131.368 46.473 139.538 46.3357C155.844 46.0611 172.147 45.9966 188.458 46.2337C194.855 46.3253 198.806 50.7587 199.074 56.3302C199.295 60.953 199.415 65.5924 200.391 70.2048C203.539 85.0863 216.261 96.9491 231.945 98.5136C236.595 98.9776 241.235 99.1794 245.893 99.1794C331.271 99.1814 416.647 99.1794 502.024 99.171C508.511 99.171 514.986 99.0878 521.321 97.3777C536.883 93.1793 547.187 79.4108 547.959 63.2748C548.1 60.2852 548.227 57.2768 548.675 54.3226C549.353 49.8496 552.521 46.9411 556.992 46.4314C558.809 46.2233 560.643 46.0985 562.472 46.0923C580.112 46.0444 597.763 45.7365 615.387 46.5999C629.411 47.2865 643.211 49.5063 655.922 55.9183C676.596 66.3435 688.733 83.3679 693.851 105.714C696.431 116.98 696.961 128.439 697.219 139.921C697.38 147.074 697.39 154.232 697.39 161.389C697.404 552.328 697.411 943.266 697.413 1334.2C697.413 1347.85 697.442 1361.5 695.751 1375.08C693.466 1393.37 687.231 1409.89 673.746 1423.06C662.927 1433.62 649.781 1439.61 635.124 1442.51C622.504 1445.02 609.692 1445.48 596.875 1445.5C557.431 1445.55 517.988 1445.54 478.544 1445.54C371.532 1445.54 264.519 1445.53 157.504 1445.54C144.354 1445.55 131.203 1445.42 118.159 1443.54C97.8535 1440.6 80.2611 1432.56 67.3581 1415.96C59.4253 1405.75 54.9461 1394.06 52.6659 1381.45C50.0466 1366.96 50.0529 1352.3 50.0466 1337.66C50.005 1257.61 50.0216 1177.56 50.0216 1097.5C50.0196 980.173 50.0216 862.839 50.0216 745.51H50.0008Z" fill="black"/>
</g>
<defs>
<filter id="filter0_d_174_1187" x="-40" y="-36" width="827.5" height="1571" filterUnits="userSpaceOnUse" color-interpolation-filters="sRGB">
<feFlood flood-opacity="0" result="BackgroundImageFix"/>
<feColorMatrix in="SourceAlpha" type="matrix" values="0 0 0 0 0 0 0 0 0 0 0 0 0 0 0 0 0 0 127 0" result="hardAlpha"/>
<feOffset dy="4"/>
<feGaussianBlur stdDeviation="25"/>
<feColorMatrix type="matrix" values="0 0 0 0 0 0 0 0 0 0 0 0 0 0 0 0 0 0 0.1 0"/>
<feBlend mode="normal" in2="BackgroundImageFix" result="effect1_dropShadow_174_1187"/>
<feBlend mode="normal" in="SourceGraphic" in2="effect1_dropShadow_174_1187" result="shape"/>
</filter>
<clipPath id="clip0_174_1187">
<rect width="727.5" height="1471" fill="white" transform="translate(10 10)"/>
</clipPath>
</defs>
</svg>
